<mxfile host="Electron" agent="Mozilla/5.0 (Windows NT 10.0; Win64; x64) AppleWebKit/537.36 (KHTML, like Gecko) draw.io/26.2.2 Chrome/134.0.6998.178 Electron/35.1.2 Safari/537.36" version="26.2.2" pages="2">
  <diagram id="ySuMT8Qh3i7oGXkuK4oL" name="Page-1">
    <mxGraphModel dx="3222" dy="1833" grid="1" gridSize="10" guides="1" tooltips="1" connect="1" arrows="1" fold="1" page="0" pageScale="1" pageWidth="1169" pageHeight="1654" background="none" math="0" shadow="0">
      <root>
        <mxCell id="0" />
        <mxCell id="1" parent="0" />
        <mxCell id="node9" value="&lt;p style=&quot;margin:0px;margin-top:4px;text-align:center;&quot;&gt;&lt;b&gt;cart_items&lt;/b&gt;&lt;/p&gt;&lt;hr size=&quot;1&quot;/&gt;&lt;p style=&quot;margin:0 0 0 4px;line-height:1.6;&quot;&gt; created_at: datetime(6)&lt;br/&gt; product_id: varchar(255)&lt;br/&gt; product_image: varchar(255)&lt;br/&gt; product_name: varchar(255)&lt;br/&gt; quantity: int&lt;br/&gt; subtotal: decimal(10,2)&lt;br/&gt; unit_price: decimal(10,2)&lt;br/&gt; updated_at: datetime(6)&lt;br/&gt; cart_id: varchar(255)&lt;/p&gt;&lt;hr size=&quot;1&quot;/&gt;&lt;p style=&quot;margin:0 0 0 4px;line-height:1.6;&quot;&gt; id: varchar(255)&lt;/p&gt;" style="verticalAlign=top;align=left;overflow=fill;fontSize=14;fontFamily=Helvetica;html=1;rounded=0;shadow=0;comic=0;labelBackgroundColor=none;strokeWidth=1;" parent="1" vertex="1">
          <mxGeometry x="879" y="1750" width="196" height="275" as="geometry" />
        </mxCell>
        <mxCell id="node4" value="&lt;p style=&quot;margin:0px;margin-top:4px;text-align:center;&quot;&gt;&lt;b&gt;carts&lt;/b&gt;&lt;/p&gt;&lt;hr size=&quot;1&quot;/&gt;&lt;p style=&quot;margin:0 0 0 4px;line-height:1.6;&quot;&gt; created_at: datetime(6)&lt;br/&gt; item_count: int&lt;br/&gt; status: enum(&amp;#39;active&amp;#39;, &amp;#39;converted&amp;#39;, &amp;#39;expired&amp;#39;)&lt;br/&gt; total_amount: decimal(10,2)&lt;br/&gt; updated_at: datetime(6)&lt;br/&gt; user_id: varchar(255)&lt;/p&gt;&lt;hr size=&quot;1&quot;/&gt;&lt;p style=&quot;margin:0 0 0 4px;line-height:1.6;&quot;&gt; id: varchar(255)&lt;/p&gt;" style="verticalAlign=top;align=left;overflow=fill;fontSize=14;fontFamily=Helvetica;html=1;rounded=0;shadow=0;comic=0;labelBackgroundColor=none;strokeWidth=1;" parent="1" vertex="1">
          <mxGeometry x="805" y="319" width="270" height="203" as="geometry" />
        </mxCell>
        <mxCell id="node3" value="&lt;p style=&quot;margin:0px;margin-top:4px;text-align:center;&quot;&gt;&lt;b&gt;categories&lt;/b&gt;&lt;/p&gt;&lt;hr size=&quot;1&quot;/&gt;&lt;p style=&quot;margin:0 0 0 4px;line-height:1.6;&quot;&gt; active: bit(1)&lt;br/&gt; created_at: datetime(6)&lt;br/&gt; description: text&lt;br/&gt; featured: bit(1)&lt;br/&gt; icon_class: varchar(255)&lt;br/&gt; image_url: varchar(255)&lt;br/&gt; meta_description: varchar(255)&lt;br/&gt; meta_keywords: varchar(255)&lt;br/&gt; meta_title: varchar(255)&lt;br/&gt; name: varchar(255)&lt;br/&gt; parent_id: varchar(255)&lt;br/&gt; product_count: int&lt;br/&gt; sort_order: int&lt;br/&gt; updated_at: datetime(6)&lt;/p&gt;&lt;hr size=&quot;1&quot;/&gt;&lt;p style=&quot;margin:0 0 0 4px;line-height:1.6;&quot;&gt; id: varchar(255)&lt;/p&gt;" style="verticalAlign=top;align=left;overflow=fill;fontSize=14;fontFamily=Helvetica;html=1;rounded=0;shadow=0;comic=0;labelBackgroundColor=none;strokeWidth=1;" parent="1" vertex="1">
          <mxGeometry x="376" y="1403" width="208" height="395" as="geometry" />
        </mxCell>
        <mxCell id="node6" value="&lt;p style=&quot;margin:0px;margin-top:4px;text-align:center;&quot;&gt;&lt;b&gt;order_items&lt;/b&gt;&lt;/p&gt;&lt;hr size=&quot;1&quot;/&gt;&lt;p style=&quot;margin:0 0 0 4px;line-height:1.6;&quot;&gt; created_at: datetime(6)&lt;br/&gt; product_id: varchar(255)&lt;br/&gt; product_image: varchar(255)&lt;br/&gt; product_name: varchar(255)&lt;br/&gt; quantity: int&lt;br/&gt; subtotal: decimal(10,2)&lt;br/&gt; unit_price: decimal(10,2)&lt;br/&gt; updated_at: datetime(6)&lt;br/&gt; order_id: varchar(255)&lt;/p&gt;&lt;hr size=&quot;1&quot;/&gt;&lt;p style=&quot;margin:0 0 0 4px;line-height:1.6;&quot;&gt; id: varchar(255)&lt;/p&gt;" style="verticalAlign=top;align=left;overflow=fill;fontSize=14;fontFamily=Helvetica;html=1;rounded=0;shadow=0;comic=0;labelBackgroundColor=none;strokeWidth=1;" parent="1" vertex="1">
          <mxGeometry x="609" y="1740" width="196" height="275" as="geometry" />
        </mxCell>
        <mxCell id="node1" value="&lt;p style=&quot;margin:0px;margin-top:4px;text-align:center;&quot;&gt;&lt;b&gt;orders&lt;/b&gt;&lt;/p&gt;&lt;hr size=&quot;1&quot;/&gt;&lt;p style=&quot;margin:0 0 0 4px;line-height:1.6;&quot;&gt; created_at: datetime(6)&lt;br/&gt; delivery_address: text&lt;br/&gt; delivery_city: varchar(255)&lt;br/&gt; delivery_country: varchar(255)&lt;br/&gt; delivery_phone: varchar(255)&lt;br/&gt; delivery_state: varchar(255)&lt;br/&gt; delivery_zip_code: varchar(255)&lt;br/&gt; estimated_delivery_date: datetime(6)&lt;br/&gt; notes: text&lt;br/&gt; order_number: varchar(255)&lt;br/&gt; payment_method: enum(&amp;#39;bank_transfer&amp;#39;, &amp;#39;cash_on_delivery&amp;#39;, &amp;#39;credit_card&amp;#39;, &amp;#39;debit_card&amp;#39;, &amp;#39;digital_wallet&amp;#39;)&lt;br/&gt; payment_status: enum(&amp;#39;authorized&amp;#39;, &amp;#39;failed&amp;#39;, &amp;#39;paid&amp;#39;, &amp;#39;partially_refunded&amp;#39;, &amp;#39;pending&amp;#39;, &amp;#39;refunded&amp;#39;)&lt;br/&gt; payment_transaction_id: varchar(255)&lt;br/&gt; shipping_amount: decimal(10,2)&lt;br/&gt; status: enum(&amp;#39;cancelled&amp;#39;, &amp;#39;confirmed&amp;#39;, &amp;#39;delivered&amp;#39;, &amp;#39;pending&amp;#39;, &amp;#39;processing&amp;#39;, &amp;#39;refunded&amp;#39;, &amp;#39;shipped&amp;#39;)&lt;br/&gt; subtotal: decimal(10,2)&lt;br/&gt; tax_amount: decimal(10,2)&lt;br/&gt; total_amount: decimal(10,2)&lt;br/&gt; tracking_number: varchar(255)&lt;br/&gt; updated_at: datetime(6)&lt;br/&gt; user_id: varchar(255)&lt;/p&gt;&lt;hr size=&quot;1&quot;/&gt;&lt;p style=&quot;margin:0 0 0 4px;line-height:1.6;&quot;&gt; id: varchar(255)&lt;/p&gt;" style="verticalAlign=top;align=left;overflow=fill;fontSize=14;fontFamily=Helvetica;html=1;rounded=0;shadow=0;comic=0;labelBackgroundColor=none;strokeWidth=1;" parent="1" vertex="1">
          <mxGeometry x="-18" y="139" width="597" height="563" as="geometry" />
        </mxCell>
        <mxCell id="node5" value="&lt;p style=&quot;margin:0px;margin-top:4px;text-align:center;&quot;&gt;&lt;b&gt;password_reset_tokens&lt;/b&gt;&lt;/p&gt;&lt;hr size=&quot;1&quot;/&gt;&lt;p style=&quot;margin:0 0 0 4px;line-height:1.6;&quot;&gt; created_at: datetime(6)&lt;br/&gt; expiry_date: datetime(6)&lt;br/&gt; token: varchar(255)&lt;br/&gt; used: bit(1)&lt;br/&gt; user_id: varchar(255)&lt;/p&gt;&lt;hr size=&quot;1&quot;/&gt;&lt;p style=&quot;margin:0 0 0 4px;line-height:1.6;&quot;&gt; id: varchar(255)&lt;/p&gt;" style="verticalAlign=top;align=left;overflow=fill;fontSize=14;fontFamily=Helvetica;html=1;rounded=0;shadow=0;comic=0;labelBackgroundColor=none;strokeWidth=1;" parent="1" vertex="1">
          <mxGeometry x="-145" y="931" width="210" height="179" as="geometry" />
        </mxCell>
        <mxCell id="node7" value="&lt;p style=&quot;margin:0px;margin-top:4px;text-align:center;&quot;&gt;&lt;b&gt;payments&lt;/b&gt;&lt;/p&gt;&lt;hr size=&quot;1&quot;/&gt;&lt;p style=&quot;margin:0 0 0 4px;line-height:1.6;&quot;&gt; amount: decimal(10,2)&lt;br/&gt; billing_address: text&lt;br/&gt; billing_city: varchar(255)&lt;br/&gt; billing_country: varchar(255)&lt;br/&gt; billing_state: varchar(255)&lt;br/&gt; billing_zip_code: varchar(255)&lt;br/&gt; card_brand: varchar(255)&lt;br/&gt; card_expiry_month: int&lt;br/&gt; card_expiry_year: int&lt;br/&gt; card_last_four: varchar(255)&lt;br/&gt; created_at: datetime(6)&lt;br/&gt; failure_reason: varchar(255)&lt;br/&gt; gateway_error_code: varchar(255)&lt;br/&gt; gateway_error_message: varchar(255)&lt;br/&gt; gateway_response: varchar(255)&lt;br/&gt; order_id: varchar(255)&lt;br/&gt; payment_method: enum(&amp;#39;bank_transfer&amp;#39;, &amp;#39;cash_on_delivery&amp;#39;, &amp;#39;credit_card&amp;#39;, &amp;#39;debit_card&amp;#39;, &amp;#39;digital_wallet&amp;#39;)&lt;br/&gt; processed_at: datetime(6)&lt;br/&gt; status: enum(&amp;#39;cancelled&amp;#39;, &amp;#39;failed&amp;#39;, &amp;#39;partially_refunded&amp;#39;, &amp;#39;pending&amp;#39;, &amp;#39;processed&amp;#39;, &amp;#39;processing&amp;#39;, &amp;#39;refunded&amp;#39;, &amp;#39;successful&amp;#39;)&lt;br/&gt; transaction_id: varchar(255)&lt;br/&gt; updated_at: datetime(6)&lt;br/&gt; user_id: varchar(255)&lt;/p&gt;&lt;hr size=&quot;1&quot;/&gt;&lt;p style=&quot;margin:0 0 0 4px;line-height:1.6;&quot;&gt; id: varchar(255)&lt;/p&gt;" style="verticalAlign=top;align=left;overflow=fill;fontSize=14;fontFamily=Helvetica;html=1;rounded=0;shadow=0;comic=0;labelBackgroundColor=none;strokeWidth=1;" parent="1" vertex="1">
          <mxGeometry x="-327" y="1827" width="655" height="587" as="geometry" />
        </mxCell>
        <mxCell id="node8" value="&lt;p style=&quot;margin:0px;margin-top:4px;text-align:center;&quot;&gt;&lt;b&gt;product_images&lt;/b&gt;&lt;/p&gt;&lt;hr size=&quot;1&quot;/&gt;&lt;p style=&quot;margin:0 0 0 4px;line-height:1.6;&quot;&gt; product_id: varchar(255)&lt;br/&gt; image_url: varchar(255)&lt;/p&gt;" style="verticalAlign=top;align=left;overflow=fill;fontSize=14;fontFamily=Helvetica;html=1;rounded=0;shadow=0;comic=0;labelBackgroundColor=none;strokeWidth=1;" parent="1" vertex="1">
          <mxGeometry x="735" y="1559" width="171" height="89" as="geometry" />
        </mxCell>
        <mxCell id="node0" value="&lt;p style=&quot;margin:0px;margin-top:4px;text-align:center;&quot;&gt;&lt;b&gt;products&lt;/b&gt;&lt;/p&gt;&lt;hr size=&quot;1&quot;/&gt;&lt;p style=&quot;margin:0 0 0 4px;line-height:1.6;&quot;&gt; active: bit(1)&lt;br/&gt; average_rating: double&lt;br/&gt; brand: varchar(255)&lt;br/&gt; category: varchar(255)&lt;br/&gt; created_at: datetime(6)&lt;br/&gt; description: text&lt;br/&gt; dimensions: varchar(255)&lt;br/&gt; discount_percentage: double&lt;br/&gt; featured: bit(1)&lt;br/&gt; image_url: varchar(255)&lt;br/&gt; min_stock_level: int&lt;br/&gt; model: varchar(255)&lt;br/&gt; name: varchar(255)&lt;br/&gt; original_price: decimal(10,2)&lt;br/&gt; price: decimal(10,2)&lt;br/&gt; review_count: int&lt;br/&gt; sku: varchar(255)&lt;br/&gt; stock_quantity: int&lt;br/&gt; sub_category: varchar(255)&lt;br/&gt; updated_at: datetime(6)&lt;br/&gt; weight: double&lt;/p&gt;&lt;hr size=&quot;1&quot;/&gt;&lt;p style=&quot;margin:0 0 0 4px;line-height:1.6;&quot;&gt; id: varchar(255)&lt;/p&gt;" style="verticalAlign=top;align=left;overflow=fill;fontSize=14;fontFamily=Helvetica;html=1;rounded=0;shadow=0;comic=0;labelBackgroundColor=none;strokeWidth=1;" parent="1" vertex="1">
          <mxGeometry x="600" y="739" width="200" height="563" as="geometry" />
        </mxCell>
        <mxCell id="node2" value="&lt;p style=&quot;margin:0px;margin-top:4px;text-align:center;&quot;&gt;&lt;b&gt;users&lt;/b&gt;&lt;/p&gt;&lt;hr size=&quot;1&quot;/&gt;&lt;p style=&quot;margin:0 0 0 4px;line-height:1.6;&quot;&gt; active: bit(1)&lt;br/&gt; created_at: datetime(6)&lt;br/&gt; email: varchar(255)&lt;br/&gt; email_verified: bit(1)&lt;br/&gt; first_name: varchar(255)&lt;br/&gt; last_login: datetime(6)&lt;br/&gt; last_name: varchar(255)&lt;br/&gt; password: varchar(255)&lt;br/&gt; phone_number: varchar(255)&lt;br/&gt; phone_verified: bit(1)&lt;br/&gt; role: enum(&amp;#39;admin&amp;#39;, &amp;#39;moderator&amp;#39;, &amp;#39;user&amp;#39;)&lt;br/&gt; updated_at: datetime(6)&lt;/p&gt;&lt;hr size=&quot;1&quot;/&gt;&lt;p style=&quot;margin:0 0 0 4px;line-height:1.6;&quot;&gt; id: varchar(255)&lt;/p&gt;" style="verticalAlign=top;align=left;overflow=fill;fontSize=14;fontFamily=Helvetica;html=1;rounded=0;shadow=0;comic=0;labelBackgroundColor=none;strokeWidth=1;" parent="1" vertex="1">
          <mxGeometry x="-283" y="-293" width="247" height="347" as="geometry" />
        </mxCell>
        <mxCell id="edge1" value="" style="html=1;rounded=1;edgeStyle=orthogonalEdgeStyle;dashed=0;startArrow=none;endArrow=block;endSize=12;strokeColor=#595959;exitX=0.750;exitY=0.000;exitDx=0;exitDy=0;entryX=0.500;entryY=1.000;entryDx=0;entryDy=0;" parent="1" source="node9" target="node4" edge="1">
          <mxGeometry width="50" height="50" relative="1" as="geometry">
            <Array as="points">
              <mxPoint x="1029" y="1500" />
              <mxPoint x="940" y="1500" />
            </Array>
          </mxGeometry>
        </mxCell>
        <mxCell id="label8" value="cart_id:id" style="edgeLabel;resizable=0;html=1;align=left;verticalAlign=top;strokeColor=default;" parent="edge1" vertex="1" connectable="0">
          <mxGeometry x="958" y="1480" as="geometry" />
        </mxCell>
        <mxCell id="edge3" value="" style="html=1;rounded=1;edgeStyle=orthogonalEdgeStyle;dashed=0;startArrow=none;endArrow=block;endSize=12;strokeColor=#595959;exitX=0.250;exitY=0.000;exitDx=0;exitDy=0;entryX=0.500;entryY=1.000;entryDx=0;entryDy=0;" parent="1" source="node9" target="node0" edge="1">
          <mxGeometry width="50" height="50" relative="1" as="geometry">
            <Array as="points">
              <mxPoint x="931" y="1520" />
              <mxPoint x="700" y="1520" />
            </Array>
          </mxGeometry>
        </mxCell>
        <mxCell id="label20" value="product_id:id" style="edgeLabel;resizable=0;html=1;align=left;verticalAlign=top;strokeColor=default;" parent="edge3" vertex="1" connectable="0">
          <mxGeometry x="816" y="1510" as="geometry" />
        </mxCell>
        <mxCell id="edge6" value="" style="html=1;rounded=1;edgeStyle=orthogonalEdgeStyle;dashed=0;startArrow=none;endArrow=block;endSize=12;strokeColor=#595959;exitX=0.500;exitY=0.000;exitDx=0;exitDy=0;entryX=0.500;entryY=1.000;entryDx=0;entryDy=0;" parent="1" source="node4" target="node2" edge="1">
          <mxGeometry width="50" height="50" relative="1" as="geometry">
            <Array as="points">
              <mxPoint x="940" y="100" />
              <mxPoint x="-160" y="100" />
            </Array>
          </mxGeometry>
        </mxCell>
        <mxCell id="label38" value="user_id:id" style="edgeLabel;resizable=0;html=1;align=left;verticalAlign=top;strokeColor=default;" parent="edge6" vertex="1" connectable="0">
          <mxGeometry x="361" y="80" as="geometry" />
        </mxCell>
        <mxCell id="edge0" value="" style="html=1;rounded=1;edgeStyle=orthogonalEdgeStyle;dashed=0;startArrow=none;endArrow=block;endSize=12;strokeColor=#595959;exitX=0.250;exitY=0.000;exitDx=0;exitDy=0;entryX=0.500;entryY=1.000;entryDx=0;entryDy=0;" parent="1" source="node6" target="node1" edge="1">
          <mxGeometry width="50" height="50" relative="1" as="geometry">
            <Array as="points">
              <mxPoint x="611" y="1380" />
              <mxPoint x="280" y="1380" />
            </Array>
          </mxGeometry>
        </mxCell>
        <mxCell id="label2" value="order_id:id" style="edgeLabel;resizable=0;html=1;align=left;verticalAlign=top;strokeColor=default;" parent="edge0" vertex="1" connectable="0">
          <mxGeometry x="414" y="1360" as="geometry" />
        </mxCell>
        <mxCell id="edge9" value="" style="html=1;rounded=1;edgeStyle=orthogonalEdgeStyle;dashed=0;startArrow=none;endArrow=block;endSize=12;strokeColor=#595959;exitX=0.750;exitY=0.000;exitDx=0;exitDy=0;entryX=0.500;entryY=1.000;entryDx=0;entryDy=0;" parent="1" source="node6" target="node0" edge="1">
          <mxGeometry width="50" height="50" relative="1" as="geometry">
            <Array as="points">
              <mxPoint x="709" y="1520" />
              <mxPoint x="700" y="1520" />
            </Array>
          </mxGeometry>
        </mxCell>
        <mxCell id="label56" value="product_id:id" style="edgeLabel;resizable=0;html=1;align=left;verticalAlign=top;strokeColor=default;" parent="edge9" vertex="1" connectable="0">
          <mxGeometry x="625" y="1488" as="geometry" />
        </mxCell>
        <mxCell id="edge5" value="" style="html=1;rounded=1;edgeStyle=orthogonalEdgeStyle;dashed=0;startArrow=none;endArrow=block;endSize=12;strokeColor=#595959;exitX=0.500;exitY=0.000;exitDx=0;exitDy=0;entryX=0.500;entryY=1.000;entryDx=0;entryDy=0;" parent="1" source="node1" target="node2" edge="1">
          <mxGeometry width="50" height="50" relative="1" as="geometry">
            <Array as="points">
              <mxPoint x="280" y="100" />
              <mxPoint x="-160" y="100" />
            </Array>
          </mxGeometry>
        </mxCell>
        <mxCell id="label32" value="user_id:id" style="edgeLabel;resizable=0;html=1;align=left;verticalAlign=top;strokeColor=default;" parent="edge5" vertex="1" connectable="0">
          <mxGeometry x="31" y="80" as="geometry" />
        </mxCell>
        <mxCell id="edge2" value="" style="html=1;rounded=1;edgeStyle=orthogonalEdgeStyle;dashed=0;startArrow=none;endArrow=block;endSize=12;strokeColor=#595959;exitX=0.500;exitY=0.000;exitDx=0;exitDy=0;entryX=0.500;entryY=1.000;entryDx=0;entryDy=0;" parent="1" source="node5" target="node2" edge="1">
          <mxGeometry width="50" height="50" relative="1" as="geometry">
            <Array as="points">
              <mxPoint x="-40" y="100" />
              <mxPoint x="-160" y="100" />
            </Array>
          </mxGeometry>
        </mxCell>
        <mxCell id="label14" value="user_id:id" style="edgeLabel;resizable=0;html=1;align=left;verticalAlign=top;strokeColor=default;" parent="edge2" vertex="1" connectable="0">
          <mxGeometry x="-99" y="173" as="geometry" />
        </mxCell>
        <mxCell id="edge8" value="" style="html=1;rounded=1;edgeStyle=orthogonalEdgeStyle;dashed=0;startArrow=none;endArrow=block;endSize=12;strokeColor=#595959;exitX=0.750;exitY=0.000;exitDx=0;exitDy=0;entryX=0.500;entryY=1.000;entryDx=0;entryDy=0;" parent="1" source="node7" target="node1" edge="1">
          <mxGeometry width="50" height="50" relative="1" as="geometry">
            <Array as="points">
              <mxPoint x="164" y="1380" />
              <mxPoint x="280" y="1380" />
            </Array>
          </mxGeometry>
        </mxCell>
        <mxCell id="label50" value="order_id:id" style="edgeLabel;resizable=0;html=1;align=left;verticalAlign=top;strokeColor=default;" parent="edge8" vertex="1" connectable="0">
          <mxGeometry x="190" y="1360" as="geometry" />
        </mxCell>
        <mxCell id="edge7" value="" style="html=1;rounded=1;edgeStyle=orthogonalEdgeStyle;dashed=0;startArrow=none;endArrow=block;endSize=12;strokeColor=#595959;exitX=0.250;exitY=0.000;exitDx=0;exitDy=0;entryX=0.500;entryY=1.000;entryDx=0;entryDy=0;" parent="1" source="node7" target="node2" edge="1">
          <mxGeometry width="50" height="50" relative="1" as="geometry">
            <Array as="points">
              <mxPoint x="-164" y="1800" />
              <mxPoint x="-160" y="1800" />
            </Array>
          </mxGeometry>
        </mxCell>
        <mxCell id="label44" value="user_id:id" style="edgeLabel;resizable=0;html=1;align=left;verticalAlign=top;strokeColor=default;" parent="edge7" vertex="1" connectable="0">
          <mxGeometry x="-223" y="1790" as="geometry" />
        </mxCell>
        <mxCell id="edge4" value="" style="html=1;rounded=1;edgeStyle=orthogonalEdgeStyle;dashed=0;startArrow=none;endArrow=block;endSize=12;strokeColor=#595959;exitX=0.500;exitY=0.000;exitDx=0;exitDy=0;entryX=0.500;entryY=1.000;entryDx=0;entryDy=0;" parent="1" source="node8" target="node0" edge="1">
          <mxGeometry width="50" height="50" relative="1" as="geometry">
            <Array as="points">
              <mxPoint x="820" y="1520" />
              <mxPoint x="700" y="1520" />
            </Array>
          </mxGeometry>
        </mxCell>
        <mxCell id="label26" value="product_id:id" style="edgeLabel;resizable=0;html=1;align=left;verticalAlign=top;strokeColor=default;" parent="edge4" vertex="1" connectable="0">
          <mxGeometry x="723" y="1500" as="geometry" />
        </mxCell>
      </root>
    </mxGraphModel>
  </diagram>
  <diagram id="UWKuhOkNTd-VPLFEkiWN" name="Page-2">
    <mxGraphModel dx="3468" dy="2090" grid="1" gridSize="10" guides="1" tooltips="1" connect="1" arrows="1" fold="1" page="1" pageScale="1" pageWidth="1654" pageHeight="1169" math="0" shadow="0">
      <root>
        <mxCell id="0" />
        <mxCell id="1" parent="0" />
        <mxCell id="p1wZ1Fe3LHrUaagTYQ-F-3" value="&lt;p style=&quot;margin:0px;margin-top:4px;text-align:center;&quot;&gt;&lt;b&gt;users&lt;/b&gt;&lt;/p&gt;&lt;hr size=&quot;1&quot;/&gt;&lt;p style=&quot;margin:0 0 0 4px;line-height:1.6;&quot;&gt; active: bit(1)&lt;br/&gt; created_at: datetime(6)&lt;br/&gt; email: varchar(255)&lt;br/&gt; email_verified: bit(1)&lt;br/&gt; first_name: varchar(255)&lt;br/&gt; last_login: datetime(6)&lt;br/&gt; last_name: varchar(255)&lt;br/&gt; password: varchar(255)&lt;br/&gt; phone_number: varchar(255)&lt;br/&gt; phone_verified: bit(1)&lt;br/&gt; role: enum(&amp;#39;admin&amp;#39;, &amp;#39;moderator&amp;#39;, &amp;#39;user&amp;#39;)&lt;br/&gt; updated_at: datetime(6)&lt;/p&gt;&lt;hr size=&quot;1&quot;/&gt;&lt;p style=&quot;margin:0 0 0 4px;line-height:1.6;&quot;&gt; id: varchar(255)&lt;/p&gt;" style="verticalAlign=top;align=left;overflow=fill;fontSize=14;fontFamily=Helvetica;html=1;rounded=0;shadow=0;comic=0;labelBackgroundColor=none;strokeWidth=1;" vertex="1" parent="1">
          <mxGeometry x="-1540" y="-1080" width="243" height="353" as="geometry" />
        </mxCell>
        <mxCell id="ZyONfJWKW0vc_cAGv3Xj-1" value="&lt;p style=&quot;margin:0px;margin-top:4px;text-align:center;&quot;&gt;&lt;b&gt;orders&lt;/b&gt;&lt;/p&gt;&lt;hr size=&quot;1&quot;&gt;&lt;p style=&quot;margin:0 0 0 4px;line-height:1.6;&quot;&gt; created_at: datetime(6)&lt;br&gt; delivery_address: text&lt;br&gt; delivery_city: varchar(255)&lt;br&gt; delivery_country: varchar(255)&lt;br&gt; delivery_phone: varchar(255)&lt;br&gt; delivery_state: varchar(255)&lt;br&gt; delivery_zip_code: varchar(255)&lt;br&gt; estimated_delivery_date: datetime(6)&lt;br&gt; notes: text&lt;br&gt; order_number: varchar(255)&lt;br&gt; payment_method: enum&lt;br&gt; payment_status: enum&lt;br&gt; payment_transaction_id: varchar(255)&lt;br&gt; shipping_amount: decimal(10,2)&lt;br&gt; status: enum&lt;br&gt; subtotal: decimal(10,2)&lt;br&gt; tax_amount: decimal(10,2)&lt;br&gt; total_amount: decimal(10,2)&lt;br&gt; tracking_number: varchar(255)&lt;br&gt; updated_at: datetime(6)&lt;br&gt; user_id: varchar(255)&lt;/p&gt;&lt;hr size=&quot;1&quot;&gt;&lt;p style=&quot;margin:0 0 0 4px;line-height:1.6;&quot;&gt; id: varchar(255)&lt;/p&gt;" style="verticalAlign=top;align=left;overflow=fill;fontSize=14;fontFamily=Helvetica;html=1;rounded=0;shadow=0;comic=0;labelBackgroundColor=none;strokeWidth=1;" vertex="1" parent="1">
          <mxGeometry x="-1540" y="-640" width="260" height="563" as="geometry" />
        </mxCell>
        <mxCell id="QPXZ6ftcBd1jSy0GkHEk-1" value="&lt;p style=&quot;margin:0px;margin-top:4px;text-align:center;&quot;&gt;&lt;b&gt;cart_items&lt;/b&gt;&lt;/p&gt;&lt;hr size=&quot;1&quot;/&gt;&lt;p style=&quot;margin:0 0 0 4px;line-height:1.6;&quot;&gt; created_at: datetime(6)&lt;br/&gt; product_id: varchar(255)&lt;br/&gt; product_image: varchar(255)&lt;br/&gt; product_name: varchar(255)&lt;br/&gt; quantity: int&lt;br/&gt; subtotal: decimal(10,2)&lt;br/&gt; unit_price: decimal(10,2)&lt;br/&gt; updated_at: datetime(6)&lt;br/&gt; cart_id: varchar(255)&lt;/p&gt;&lt;hr size=&quot;1&quot;/&gt;&lt;p style=&quot;margin:0 0 0 4px;line-height:1.6;&quot;&gt; id: varchar(255)&lt;/p&gt;" style="verticalAlign=top;align=left;overflow=fill;fontSize=14;fontFamily=Helvetica;html=1;rounded=0;shadow=0;comic=0;labelBackgroundColor=none;strokeWidth=1;" vertex="1" parent="1">
          <mxGeometry x="-260" y="-1090" width="196" height="275" as="geometry" />
        </mxCell>
        <mxCell id="QPXZ6ftcBd1jSy0GkHEk-2" value="&lt;p style=&quot;margin:0px;margin-top:4px;text-align:center;&quot;&gt;&lt;b&gt;carts&lt;/b&gt;&lt;/p&gt;&lt;hr size=&quot;1&quot;/&gt;&lt;p style=&quot;margin:0 0 0 4px;line-height:1.6;&quot;&gt; created_at: datetime(6)&lt;br/&gt; item_count: int&lt;br/&gt; status: enum(&amp;#39;active&amp;#39;, &amp;#39;converted&amp;#39;, &amp;#39;expired&amp;#39;)&lt;br/&gt; total_amount: decimal(10,2)&lt;br/&gt; updated_at: datetime(6)&lt;br/&gt; user_id: varchar(255)&lt;/p&gt;&lt;hr size=&quot;1&quot;/&gt;&lt;p style=&quot;margin:0 0 0 4px;line-height:1.6;&quot;&gt; id: varchar(255)&lt;/p&gt;" style="verticalAlign=top;align=left;overflow=fill;fontSize=14;fontFamily=Helvetica;html=1;rounded=0;shadow=0;comic=0;labelBackgroundColor=none;strokeWidth=1;" vertex="1" parent="1">
          <mxGeometry x="-1090" y="-860" width="270" height="203" as="geometry" />
        </mxCell>
        <mxCell id="QPXZ6ftcBd1jSy0GkHEk-3" value="&lt;p style=&quot;margin:0px;margin-top:4px;text-align:center;&quot;&gt;&lt;b&gt;categories&lt;/b&gt;&lt;/p&gt;&lt;hr size=&quot;1&quot;/&gt;&lt;p style=&quot;margin:0 0 0 4px;line-height:1.6;&quot;&gt; active: bit(1)&lt;br/&gt; created_at: datetime(6)&lt;br/&gt; description: text&lt;br/&gt; featured: bit(1)&lt;br/&gt; icon_class: varchar(255)&lt;br/&gt; image_url: varchar(255)&lt;br/&gt; meta_description: varchar(255)&lt;br/&gt; meta_keywords: varchar(255)&lt;br/&gt; meta_title: varchar(255)&lt;br/&gt; name: varchar(255)&lt;br/&gt; parent_id: varchar(255)&lt;br/&gt; product_count: int&lt;br/&gt; sort_order: int&lt;br/&gt; updated_at: datetime(6)&lt;/p&gt;&lt;hr size=&quot;1&quot;/&gt;&lt;p style=&quot;margin:0 0 0 4px;line-height:1.6;&quot;&gt; id: varchar(255)&lt;/p&gt;" style="verticalAlign=top;align=left;overflow=fill;fontSize=14;fontFamily=Helvetica;html=1;rounded=0;shadow=0;comic=0;labelBackgroundColor=none;strokeWidth=1;" vertex="1" parent="1">
          <mxGeometry x="-820" y="-470" width="208" height="395" as="geometry" />
        </mxCell>
        <mxCell id="QPXZ6ftcBd1jSy0GkHEk-4" value="&lt;p style=&quot;margin:0px;margin-top:4px;text-align:center;&quot;&gt;&lt;b&gt;order_items&lt;/b&gt;&lt;/p&gt;&lt;hr size=&quot;1&quot;/&gt;&lt;p style=&quot;margin:0 0 0 4px;line-height:1.6;&quot;&gt; created_at: datetime(6)&lt;br/&gt; product_id: varchar(255)&lt;br/&gt; product_image: varchar(255)&lt;br/&gt; product_name: varchar(255)&lt;br/&gt; quantity: int&lt;br/&gt; subtotal: decimal(10,2)&lt;br/&gt; unit_price: decimal(10,2)&lt;br/&gt; updated_at: datetime(6)&lt;br/&gt; order_id: varchar(255)&lt;/p&gt;&lt;hr size=&quot;1&quot;/&gt;&lt;p style=&quot;margin:0 0 0 4px;line-height:1.6;&quot;&gt; id: varchar(255)&lt;/p&gt;" style="verticalAlign=top;align=left;overflow=fill;fontSize=14;fontFamily=Helvetica;html=1;rounded=0;shadow=0;comic=0;labelBackgroundColor=none;strokeWidth=1;" vertex="1" parent="1">
          <mxGeometry x="-480" y="-480" width="196" height="275" as="geometry" />
        </mxCell>
        <mxCell id="QPXZ6ftcBd1jSy0GkHEk-5" value="&lt;p style=&quot;margin:0px;margin-top:4px;text-align:center;&quot;&gt;&lt;b&gt;password_reset_tokens&lt;/b&gt;&lt;/p&gt;&lt;hr size=&quot;1&quot;/&gt;&lt;p style=&quot;margin:0 0 0 4px;line-height:1.6;&quot;&gt; created_at: datetime(6)&lt;br/&gt; expiry_date: datetime(6)&lt;br/&gt; token: varchar(255)&lt;br/&gt; used: bit(1)&lt;br/&gt; user_id: varchar(255)&lt;/p&gt;&lt;hr size=&quot;1&quot;/&gt;&lt;p style=&quot;margin:0 0 0 4px;line-height:1.6;&quot;&gt; id: varchar(255)&lt;/p&gt;" style="verticalAlign=top;align=left;overflow=fill;fontSize=14;fontFamily=Helvetica;html=1;rounded=0;shadow=0;comic=0;labelBackgroundColor=none;strokeWidth=1;" vertex="1" parent="1">
          <mxGeometry x="-1090" y="-1080" width="210" height="179" as="geometry" />
        </mxCell>
        <mxCell id="QPXZ6ftcBd1jSy0GkHEk-6" value="&lt;p style=&quot;margin:0px;margin-top:4px;text-align:center;&quot;&gt;&lt;b&gt;payments&lt;/b&gt;&lt;/p&gt;&lt;hr size=&quot;1&quot;&gt;&lt;p style=&quot;margin:0 0 0 4px;line-height:1.6;&quot;&gt; amount: decimal(10,2)&lt;br&gt; billing_address: text&lt;br&gt; billing_city: varchar(255)&lt;br&gt; billing_country: varchar(255)&lt;br&gt; billing_state: varchar(255)&lt;br&gt; billing_zip_code: varchar(255)&lt;br&gt; card_brand: varchar(255)&lt;br&gt; card_expiry_month: int&lt;br&gt; card_expiry_year: int&lt;br&gt; card_last_four: varchar(255)&lt;br&gt; created_at: datetime(6)&lt;br&gt; failure_reason: varchar(255)&lt;br&gt; gateway_error_code: varchar(255)&lt;br&gt; gateway_error_message: varchar(255)&lt;br&gt; gateway_response: varchar(255)&lt;br&gt; order_id: varchar(255)&lt;br&gt; payment_method: enum&lt;br&gt; processed_at: datetime(6)&lt;br&gt; status: enum(&#39;cancelled&#39;, &#39;failed&#39;, &#39;partially_refunded&#39;, &#39;pending&#39;, &#39;processed&#39;, &#39;processing&#39;, &#39;refunded&#39;, &#39;successful&#39;)&lt;br&gt; transaction_id: varchar(255)&lt;br&gt; updated_at: datetime(6)&lt;br&gt; user_id: varchar(255)&lt;/p&gt;&lt;hr size=&quot;1&quot;&gt;&lt;p style=&quot;margin:0 0 0 4px;line-height:1.6;&quot;&gt; id: varchar(255)&lt;/p&gt;" style="verticalAlign=top;align=left;overflow=fill;fontSize=14;fontFamily=Helvetica;html=1;rounded=0;shadow=0;comic=0;labelBackgroundColor=none;strokeWidth=1;" vertex="1" parent="1">
          <mxGeometry x="530" y="-1123" width="655" height="587" as="geometry" />
        </mxCell>
        <mxCell id="QPXZ6ftcBd1jSy0GkHEk-7" value="&lt;p style=&quot;margin:0px;margin-top:4px;text-align:center;&quot;&gt;&lt;b&gt;products&lt;/b&gt;&lt;/p&gt;&lt;hr size=&quot;1&quot;/&gt;&lt;p style=&quot;margin:0 0 0 4px;line-height:1.6;&quot;&gt; active: bit(1)&lt;br/&gt; average_rating: double&lt;br/&gt; brand: varchar(255)&lt;br/&gt; category: varchar(255)&lt;br/&gt; created_at: datetime(6)&lt;br/&gt; description: text&lt;br/&gt; dimensions: varchar(255)&lt;br/&gt; discount_percentage: double&lt;br/&gt; featured: bit(1)&lt;br/&gt; image_url: varchar(255)&lt;br/&gt; min_stock_level: int&lt;br/&gt; model: varchar(255)&lt;br/&gt; name: varchar(255)&lt;br/&gt; original_price: decimal(10,2)&lt;br/&gt; price: decimal(10,2)&lt;br/&gt; review_count: int&lt;br/&gt; sku: varchar(255)&lt;br/&gt; stock_quantity: int&lt;br/&gt; sub_category: varchar(255)&lt;br/&gt; updated_at: datetime(6)&lt;br/&gt; weight: double&lt;/p&gt;&lt;hr size=&quot;1&quot;/&gt;&lt;p style=&quot;margin:0 0 0 4px;line-height:1.6;&quot;&gt; id: varchar(255)&lt;/p&gt;" style="verticalAlign=top;align=left;overflow=fill;fontSize=14;fontFamily=Helvetica;html=1;rounded=0;shadow=0;comic=0;labelBackgroundColor=none;strokeWidth=1;" vertex="1" parent="1">
          <mxGeometry x="-1230" y="-640" width="200" height="563" as="geometry" />
        </mxCell>
      </root>
    </mxGraphModel>
  </diagram>
</mxfile>
